<svg xmlns="http://www.w3.org/2000/svg" xmlns:xlink="http://www.w3.org/1999/xlink" width="340" height="105" preserveAspectRatio="xMidYMid meet" version="1.0" viewBox="0 0 255 78.75" zoomAndPan="magnify"><defs><clipPath id="47abe01dda"><path d="M 0.402344 0 L 254.59375 0 L 254.59375 78.5 L 0.402344 78.5 Z M 0.402344 0" clip-rule="nonzero"/></clipPath></defs><g clip-path="url(#47abe01dda)"><path fill="#fff" fill-opacity="1" fill-rule="nonzero" d="M 0.402344 0 L 254.597656 0 L 254.597656 78.5 L 0.402344 78.5 Z M 0.402344 0"/><path fill="#fff" fill-opacity="1" fill-rule="nonzero" d="M 0.402344 0 L 254.597656 0 L 254.597656 78.5 L 0.402344 78.5 Z M 0.402344 0"/></g><g fill="#222" fill-opacity="1"><g><g><path d="M 18.21875 -2.84375 C 18.320312 -2.84375 18.414062 -2.78125 18.5 -2.65625 C 18.582031 -2.539062 18.59375 -2.429688 18.53125 -2.328125 C 16.289062 -0.367188 13.820312 0.609375 11.125 0.609375 C 9.15625 0.609375 7.476562 0.15625 6.09375 -0.75 C 4.707031 -1.664062 3.648438 -2.867188 2.921875 -4.359375 C 2.191406 -5.847656 1.828125 -7.441406 1.828125 -9.140625 C 1.828125 -11.140625 2.300781 -12.972656 3.25 -14.640625 C 4.195312 -16.316406 5.488281 -17.632812 7.125 -18.59375 C 8.769531 -19.5625 10.578125 -20.046875 12.546875 -20.046875 C 14.429688 -20.046875 15.878906 -19.535156 16.890625 -18.515625 C 17.910156 -17.503906 18.421875 -16.085938 18.421875 -14.265625 C 18.421875 -13.785156 18.378906 -13.441406 18.296875 -13.234375 C 18.210938 -13.035156 18.070312 -12.9375 17.875 -12.9375 L 5.28125 -12.890625 C 5.207031 -12.148438 5.171875 -11.539062 5.171875 -11.0625 C 5.171875 -8.125 5.863281 -5.738281 7.25 -3.90625 C 8.644531 -2.082031 10.59375 -1.171875 13.09375 -1.171875 C 14.113281 -1.171875 14.984375 -1.304688 15.703125 -1.578125 C 16.429688 -1.847656 17.253906 -2.269531 18.171875 -2.84375 Z M 10.859375 -19.03125 C 9.410156 -19.03125 8.210938 -18.546875 7.265625 -17.578125 C 6.316406 -16.617188 5.6875 -15.273438 5.375 -13.546875 L 15.03125 -13.75 C 15.03125 -15.476562 14.65625 -16.789062 13.90625 -17.6875 C 13.164062 -18.582031 12.148438 -19.03125 10.859375 -19.03125 Z M 10.859375 -19.03125" transform="translate(20.262054, 54.199733)"/></g></g></g><g fill="#222" fill-opacity="1"><g><g><path d="M 25.125 -0.609375 C 25.226562 -0.609375 25.28125 -0.503906 25.28125 -0.296875 C 25.28125 -0.0976562 25.226562 0 25.125 0 C 24.351562 0 23.742188 -0.015625 23.296875 -0.046875 L 20.5625 -0.09375 L 17.765625 -0.046875 C 17.328125 -0.015625 16.71875 0 15.9375 0 C 15.832031 0 15.78125 -0.0976562 15.78125 -0.296875 C 15.78125 -0.503906 15.832031 -0.609375 15.9375 -0.609375 C 16.851562 -0.609375 17.53125 -0.703125 17.96875 -0.890625 C 18.40625 -1.078125 18.703125 -1.40625 18.859375 -1.875 C 19.015625 -2.351562 19.09375 -3.097656 19.09375 -4.109375 L 19.09375 -12.34375 C 19.09375 -14.332031 18.707031 -15.800781 17.9375 -16.75 C 17.175781 -17.695312 16.003906 -18.171875 14.421875 -18.171875 C 13.367188 -18.171875 12.304688 -17.890625 11.234375 -17.328125 C 10.171875 -16.773438 9.203125 -16.007812 8.328125 -15.03125 L 8.328125 -4.109375 C 8.328125 -3.097656 8.398438 -2.351562 8.546875 -1.875 C 8.703125 -1.40625 9 -1.078125 9.4375 -0.890625 C 9.882812 -0.703125 10.5625 -0.609375 11.46875 -0.609375 C 11.570312 -0.609375 11.625 -0.503906 11.625 -0.296875 C 11.625 -0.0976562 11.570312 0 11.46875 0 C 10.695312 0 10.085938 -0.015625 9.640625 -0.046875 L 6.90625 -0.09375 L 4.109375 -0.046875 C 3.671875 -0.015625 3.0625 0 2.28125 0 C 2.175781 0 2.125 -0.0976562 2.125 -0.296875 C 2.125 -0.503906 2.175781 -0.609375 2.28125 -0.609375 C 3.195312 -0.609375 3.875 -0.703125 4.3125 -0.890625 C 4.75 -1.078125 5.046875 -1.40625 5.203125 -1.875 C 5.359375 -2.351562 5.4375 -3.097656 5.4375 -4.109375 L 5.4375 -14.15625 C 5.4375 -15.3125 5.300781 -16.140625 5.03125 -16.640625 C 4.757812 -17.148438 4.300781 -17.40625 3.65625 -17.40625 C 3.113281 -17.40625 2.195312 -17.15625 0.90625 -16.65625 L 0.8125 -16.65625 C 0.675781 -16.65625 0.582031 -16.726562 0.53125 -16.875 C 0.476562 -17.03125 0.519531 -17.140625 0.65625 -17.203125 L 6.546875 -20 L 6.859375 -20.046875 C 7.160156 -20.046875 7.476562 -19.65625 7.8125 -18.875 C 8.15625 -18.101562 8.328125 -17.109375 8.328125 -15.890625 C 9.609375 -17.378906 10.882812 -18.476562 12.15625 -19.1875 C 13.425781 -19.894531 14.738281 -20.25 16.09375 -20.25 C 17.988281 -20.25 19.441406 -19.722656 20.453125 -18.671875 C 21.472656 -17.628906 21.984375 -16.09375 21.984375 -14.0625 L 21.984375 -4.109375 C 21.984375 -3.097656 22.054688 -2.351562 22.203125 -1.875 C 22.359375 -1.40625 22.65625 -1.078125 23.09375 -0.890625 C 23.539062 -0.703125 24.21875 -0.609375 25.125 -0.609375 Z M 25.125 -0.609375" transform="translate(36.353015, 54.199733)"/></g></g></g><g fill="#222" fill-opacity="1"><g><g><path d="M 12.796875 -1.21875 C 14.617188 -1.1875 16.085938 -1.09375 17.203125 -0.9375 C 18.328125 -0.78125 19.363281 -0.332031 20.3125 0.40625 C 21.257812 1.144531 21.734375 2.328125 21.734375 3.953125 C 21.734375 5.785156 21.140625 7.488281 19.953125 9.0625 C 18.765625 10.632812 17.195312 11.882812 15.25 12.8125 C 13.3125 13.75 11.273438 14.21875 9.140625 14.21875 C 6.804688 14.21875 4.96875 13.703125 3.625 12.671875 C 2.289062 11.640625 1.625 10.289062 1.625 8.625 C 1.625 6.125 3.367188 3.65625 6.859375 1.21875 C 5.566406 1.050781 4.582031 0.703125 3.90625 0.171875 C 3.226562 -0.347656 2.890625 -1.132812 2.890625 -2.1875 C 2.890625 -3.195312 3.175781 -4.097656 3.75 -4.890625 C 4.332031 -5.691406 5.265625 -6.597656 6.546875 -7.609375 C 5.398438 -8.191406 4.503906 -8.988281 3.859375 -10 C 3.210938 -11.019531 2.890625 -12.132812 2.890625 -13.34375 C 2.890625 -15.238281 3.640625 -16.8125 5.140625 -18.0625 C 6.648438 -19.320312 8.59375 -19.953125 10.96875 -19.953125 C 13.164062 -19.953125 14.925781 -19.425781 16.25 -18.375 C 17.15625 -18.914062 18.039062 -19.320312 18.90625 -19.59375 C 19.769531 -19.863281 20.691406 -20 21.671875 -20 C 21.742188 -20 21.804688 -19.878906 21.859375 -19.640625 C 21.910156 -19.410156 21.9375 -19.160156 21.9375 -18.890625 C 21.9375 -18.484375 21.890625 -18.078125 21.796875 -17.671875 C 21.710938 -17.265625 21.601562 -17.09375 21.46875 -17.15625 C 20.894531 -17.394531 20.34375 -17.582031 19.8125 -17.71875 C 19.289062 -17.851562 18.710938 -17.921875 18.078125 -17.921875 C 17.734375 -17.921875 17.328125 -17.882812 16.859375 -17.8125 C 18.003906 -16.5625 18.578125 -15.109375 18.578125 -13.453125 C 18.578125 -12.265625 18.242188 -11.15625 17.578125 -10.125 C 16.921875 -9.09375 15.984375 -8.269531 14.765625 -7.65625 C 13.546875 -7.050781 12.160156 -6.75 10.609375 -6.75 C 9.421875 -6.75 8.320312 -6.9375 7.3125 -7.3125 C 6.632812 -6.738281 6.148438 -6.195312 5.859375 -5.6875 C 5.578125 -5.175781 5.4375 -4.617188 5.4375 -4.015625 C 5.4375 -3.265625 5.660156 -2.691406 6.109375 -2.296875 C 6.566406 -1.910156 7.320312 -1.632812 8.375 -1.46875 C 9.425781 -1.300781 10.898438 -1.21875 12.796875 -1.21875 Z M 9.75 -19.1875 C 7.28125 -19.1875 6.046875 -17.644531 6.046875 -14.5625 C 6.046875 -13.039062 6.316406 -11.75 6.859375 -10.6875 C 7.398438 -9.625 8.09375 -8.828125 8.9375 -8.296875 C 9.78125 -7.773438 10.660156 -7.515625 11.578125 -7.515625 C 12.722656 -7.515625 13.640625 -7.910156 14.328125 -8.703125 C 15.023438 -9.503906 15.375 -10.71875 15.375 -12.34375 C 15.375 -14.4375 14.832031 -16.097656 13.75 -17.328125 C 12.675781 -18.566406 11.34375 -19.1875 9.75 -19.1875 Z M 11.21875 12.6875 C 13.550781 12.6875 15.460938 12.066406 16.953125 10.828125 C 18.441406 9.597656 19.1875 7.953125 19.1875 5.890625 C 19.1875 4.535156 18.851562 3.546875 18.1875 2.921875 C 17.53125 2.296875 16.660156 1.894531 15.578125 1.71875 C 14.492188 1.550781 12.988281 1.46875 11.0625 1.46875 C 10.25 1.46875 9.234375 1.4375 8.015625 1.375 C 6.898438 2.082031 6.046875 2.867188 5.453125 3.734375 C 4.859375 4.597656 4.5625 5.671875 4.5625 6.953125 C 4.5625 8.710938 5.144531 10.109375 6.3125 11.140625 C 7.488281 12.171875 9.125 12.6875 11.21875 12.6875 Z M 11.21875 12.6875" transform="translate(57.976981, 54.199733)"/></g></g></g><g fill="#222" fill-opacity="1"><g><g><path d="M 13.953125 -20.046875 C 14.703125 -20.046875 15.414062 -19.84375 16.09375 -19.4375 C 16.769531 -19.03125 17.109375 -18.539062 17.109375 -17.96875 C 17.109375 -17.53125 16.960938 -17.15625 16.671875 -16.84375 C 16.390625 -16.539062 15.976562 -16.390625 15.4375 -16.390625 C 15.125 -16.390625 14.859375 -16.445312 14.640625 -16.5625 C 14.421875 -16.6875 14.160156 -16.867188 13.859375 -17.109375 C 13.554688 -17.378906 13.269531 -17.582031 13 -17.71875 C 12.726562 -17.851562 12.40625 -17.921875 12.03125 -17.921875 C 11.59375 -17.921875 11.128906 -17.734375 10.640625 -17.359375 C 10.148438 -16.984375 9.378906 -16.1875 8.328125 -14.96875 L 8.328125 -4.109375 C 8.328125 -3.097656 8.453125 -2.351562 8.703125 -1.875 C 8.960938 -1.40625 9.429688 -1.078125 10.109375 -0.890625 C 10.785156 -0.703125 11.832031 -0.609375 13.25 -0.609375 C 13.382812 -0.609375 13.453125 -0.503906 13.453125 -0.296875 C 13.453125 -0.0976562 13.382812 0 13.25 0 C 12.164062 0 11.300781 -0.015625 10.65625 -0.046875 L 6.90625 -0.09375 L 4.109375 -0.046875 C 3.671875 -0.015625 3.0625 0 2.28125 0 C 2.175781 0 2.125 -0.0976562 2.125 -0.296875 C 2.125 -0.503906 2.175781 -0.609375 2.28125 -0.609375 C 3.195312 -0.609375 3.875 -0.703125 4.3125 -0.890625 C 4.75 -1.078125 5.046875 -1.40625 5.203125 -1.875 C 5.359375 -2.351562 5.4375 -3.097656 5.4375 -4.109375 L 5.4375 -14.15625 C 5.4375 -15.3125 5.300781 -16.140625 5.03125 -16.640625 C 4.757812 -17.148438 4.300781 -17.40625 3.65625 -17.40625 C 3.113281 -17.40625 2.195312 -17.15625 0.90625 -16.65625 L 0.8125 -16.65625 C 0.675781 -16.65625 0.582031 -16.726562 0.53125 -16.875 C 0.476562 -17.03125 0.519531 -17.140625 0.65625 -17.203125 L 6.546875 -20 L 6.859375 -20.046875 C 7.160156 -20.046875 7.476562 -19.65625 7.8125 -18.875 C 8.15625 -18.101562 8.328125 -17.109375 8.328125 -15.890625 L 8.328125 -15.84375 C 9.710938 -17.46875 10.8125 -18.570312 11.625 -19.15625 C 12.4375 -19.75 13.210938 -20.046875 13.953125 -20.046875 Z M 13.953125 -20.046875" transform="translate(75.946123, 54.199733)"/></g></g></g><g fill="#222" fill-opacity="1"><g><g><path d="M 21.0625 -2.734375 C 21.195312 -2.734375 21.28125 -2.65625 21.3125 -2.5 C 21.351562 -2.351562 21.304688 -2.25 21.171875 -2.1875 L 15.9375 0.296875 C 15.800781 0.367188 15.664062 0.40625 15.53125 0.40625 C 15.09375 0.40625 14.703125 0.109375 14.359375 -0.484375 C 14.023438 -1.078125 13.804688 -1.878906 13.703125 -2.890625 L 11.0625 -1.171875 C 10.21875 -0.628906 9.472656 -0.238281 8.828125 0 C 8.191406 0.238281 7.515625 0.359375 6.796875 0.359375 C 5.546875 0.359375 4.570312 0.03125 3.875 -0.625 C 3.1875 -1.289062 2.84375 -2.128906 2.84375 -3.140625 C 2.84375 -4.160156 3.25 -5.039062 4.0625 -5.78125 C 4.875 -6.53125 6.210938 -7.242188 8.078125 -7.921875 L 13.65625 -10 L 13.65625 -13.453125 C 13.65625 -17.242188 12.585938 -19.140625 10.453125 -19.140625 C 9.304688 -19.140625 8.4375 -18.757812 7.84375 -18 C 7.25 -17.238281 6.851562 -16.363281 6.65625 -15.375 C 6.550781 -14.769531 6.363281 -14.269531 6.09375 -13.875 C 5.820312 -13.488281 5.363281 -13.296875 4.71875 -13.296875 C 4.175781 -13.296875 3.757812 -13.445312 3.46875 -13.75 C 3.1875 -14.0625 3.046875 -14.421875 3.046875 -14.828125 C 3.046875 -15.640625 3.566406 -16.453125 4.609375 -17.265625 C 5.660156 -18.078125 6.914062 -18.753906 8.375 -19.296875 C 9.832031 -19.835938 11.132812 -20.109375 12.28125 -20.109375 C 13.664062 -20.109375 14.710938 -19.664062 15.421875 -18.78125 C 16.140625 -17.90625 16.5 -16.632812 16.5 -14.96875 L 16.5 -5.484375 C 16.5 -4.296875 16.648438 -3.429688 16.953125 -2.890625 C 17.253906 -2.347656 17.765625 -2.078125 18.484375 -2.078125 C 19.117188 -2.078125 19.945312 -2.296875 20.96875 -2.734375 Z M 13.65625 -3.609375 L 13.65625 -9.296875 L 8.9375 -7.46875 C 7.988281 -7.09375 7.300781 -6.660156 6.875 -6.171875 C 6.457031 -5.679688 6.25 -5.097656 6.25 -4.421875 C 6.25 -3.609375 6.507812 -2.921875 7.03125 -2.359375 C 7.550781 -1.796875 8.238281 -1.515625 9.09375 -1.515625 C 9.769531 -1.515625 10.582031 -1.785156 11.53125 -2.328125 Z M 13.65625 -3.609375" transform="translate(89.803587, 54.199733)"/></g></g></g><g fill="#222" fill-opacity="1"><g><g><path d="M 21.875 -19.59375 C 21.945312 -19.59375 21.984375 -19.488281 21.984375 -19.28125 C 21.984375 -19.082031 21.945312 -18.984375 21.875 -18.984375 C 21.03125 -18.984375 20.300781 -18.703125 19.6875 -18.140625 C 19.082031 -17.585938 18.507812 -16.632812 17.96875 -15.28125 L 11.625 -0.046875 C 11.5625 0.117188 11.375 0.203125 11.0625 0.203125 C 10.757812 0.203125 10.578125 0.117188 10.515625 -0.046875 L 3.40625 -15.375 C 2.726562 -16.832031 2.160156 -17.796875 1.703125 -18.265625 C 1.242188 -18.742188 0.675781 -18.984375 0 -18.984375 C -0.101562 -18.984375 -0.15625 -19.082031 -0.15625 -19.28125 C -0.15625 -19.488281 -0.101562 -19.59375 0 -19.59375 C 0.675781 -19.59375 1.203125 -19.578125 1.578125 -19.546875 L 3.5 -19.5 L 6.796875 -19.546875 C 7.304688 -19.578125 7.984375 -19.59375 8.828125 -19.59375 C 8.929688 -19.59375 8.984375 -19.488281 8.984375 -19.28125 C 8.984375 -19.082031 8.929688 -18.984375 8.828125 -18.984375 C 6.796875 -18.984375 5.78125 -18.578125 5.78125 -17.765625 C 5.78125 -17.523438 5.847656 -17.269531 5.984375 -17 L 12.1875 -3.90625 L 16.953125 -15.53125 C 17.191406 -16.175781 17.3125 -16.664062 17.3125 -17 C 17.3125 -17.675781 16.988281 -18.175781 16.34375 -18.5 C 15.695312 -18.820312 14.679688 -18.984375 13.296875 -18.984375 C 13.234375 -18.984375 13.203125 -19.082031 13.203125 -19.28125 C 13.203125 -19.488281 13.234375 -19.59375 13.296875 -19.59375 C 14.210938 -19.59375 14.90625 -19.578125 15.375 -19.546875 L 18.421875 -19.5 L 20.25 -19.546875 C 20.59375 -19.578125 21.132812 -19.59375 21.875 -19.59375 Z M 21.875 -19.59375" transform="translate(106.452928, 54.199733)"/></g></g></g><g fill="#222" fill-opacity="1"><g><g><path d="M 18.21875 -2.84375 C 18.320312 -2.84375 18.414062 -2.78125 18.5 -2.65625 C 18.582031 -2.539062 18.59375 -2.429688 18.53125 -2.328125 C 16.289062 -0.367188 13.820312 0.609375 11.125 0.609375 C 9.15625 0.609375 7.476562 0.15625 6.09375 -0.75 C 4.707031 -1.664062 3.648438 -2.867188 2.921875 -4.359375 C 2.191406 -5.847656 1.828125 -7.441406 1.828125 -9.140625 C 1.828125 -11.140625 2.300781 -12.972656 3.25 -14.640625 C 4.195312 -16.316406 5.488281 -17.632812 7.125 -18.59375 C 8.769531 -19.5625 10.578125 -20.046875 12.546875 -20.046875 C 14.429688 -20.046875 15.878906 -19.535156 16.890625 -18.515625 C 17.910156 -17.503906 18.421875 -16.085938 18.421875 -14.265625 C 18.421875 -13.785156 18.378906 -13.441406 18.296875 -13.234375 C 18.210938 -13.035156 18.070312 -12.9375 17.875 -12.9375 L 5.28125 -12.890625 C 5.207031 -12.148438 5.171875 -11.539062 5.171875 -11.0625 C 5.171875 -8.125 5.863281 -5.738281 7.25 -3.90625 C 8.644531 -2.082031 10.59375 -1.171875 13.09375 -1.171875 C 14.113281 -1.171875 14.984375 -1.304688 15.703125 -1.578125 C 16.429688 -1.847656 17.253906 -2.269531 18.171875 -2.84375 Z M 10.859375 -19.03125 C 9.410156 -19.03125 8.210938 -18.546875 7.265625 -17.578125 C 6.316406 -16.617188 5.6875 -15.273438 5.375 -13.546875 L 15.03125 -13.75 C 15.03125 -15.476562 14.65625 -16.789062 13.90625 -17.6875 C 13.164062 -18.582031 12.148438 -19.03125 10.859375 -19.03125 Z M 10.859375 -19.03125" transform="translate(123.863693, 54.199733)"/></g></g></g><g fill="#222" fill-opacity="1"><g><g><path d="M 25.6875 -2.890625 C 25.820312 -2.890625 25.914062 -2.804688 25.96875 -2.640625 C 26.019531 -2.472656 25.992188 -2.351562 25.890625 -2.28125 L 20.3125 0.359375 C 20.101562 0.421875 19.96875 0.453125 19.90625 0.453125 C 19.457031 0.453125 19.082031 0.0820312 18.78125 -0.65625 C 18.476562 -1.40625 18.3125 -2.4375 18.28125 -3.75 C 17.019531 -2.4375 15.703125 -1.375 14.328125 -0.5625 C 12.960938 0.25 11.4375 0.65625 9.75 0.65625 C 8.320312 0.65625 7.007812 0.25 5.8125 -0.5625 C 4.613281 -1.375 3.648438 -2.515625 2.921875 -3.984375 C 2.191406 -5.453125 1.828125 -7.132812 1.828125 -9.03125 C 1.828125 -11.4375 2.414062 -13.484375 3.59375 -15.171875 C 4.78125 -16.867188 6.269531 -18.140625 8.0625 -18.984375 C 9.863281 -19.828125 11.644531 -20.25 13.40625 -20.25 C 15.195312 -20.25 16.820312 -19.8125 18.28125 -18.9375 L 18.28125 -30.3125 C 18.28125 -31.53125 18.148438 -32.410156 17.890625 -32.953125 C 17.640625 -33.492188 17.207031 -33.765625 16.59375 -33.765625 C 16.15625 -33.765625 15.378906 -33.523438 14.265625 -33.046875 L 14.15625 -33.046875 C 14.019531 -33.046875 13.925781 -33.117188 13.875 -33.265625 C 13.832031 -33.421875 13.859375 -33.535156 13.953125 -33.609375 L 20.40625 -36.75 C 20.476562 -36.789062 20.5625 -36.8125 20.65625 -36.8125 C 20.726562 -36.8125 20.820312 -36.765625 20.9375 -36.671875 C 21.0625 -36.585938 21.125 -36.5 21.125 -36.40625 L 21.125 -5.578125 C 21.125 -4.359375 21.265625 -3.476562 21.546875 -2.9375 C 21.835938 -2.394531 22.304688 -2.125 22.953125 -2.125 C 23.929688 -2.125 24.804688 -2.363281 25.578125 -2.84375 Z M 11.734375 -1.171875 C 12.941406 -1.171875 14.070312 -1.460938 15.125 -2.046875 C 16.175781 -2.640625 17.226562 -3.476562 18.28125 -4.5625 L 18.28125 -15.734375 C 17.46875 -16.847656 16.566406 -17.707031 15.578125 -18.3125 C 14.597656 -18.925781 13.414062 -19.234375 12.03125 -19.234375 C 9.894531 -19.234375 8.207031 -18.476562 6.96875 -16.96875 C 5.738281 -15.46875 5.125 -13.332031 5.125 -10.5625 C 5.125 -8.695312 5.410156 -7.050781 5.984375 -5.625 C 6.566406 -4.207031 7.351562 -3.109375 8.34375 -2.328125 C 9.34375 -1.554688 10.472656 -1.171875 11.734375 -1.171875 Z M 11.734375 -1.171875" transform="translate(139.954652, 54.199733)"/></g></g></g><g fill="#222" fill-opacity="1"><g><g><path d="M 11.734375 0.609375 C 9.523438 0.609375 7.675781 0.128906 6.1875 -0.828125 C 4.695312 -1.796875 3.597656 -3.039062 2.890625 -4.5625 C 2.179688 -6.09375 1.828125 -7.703125 1.828125 -9.390625 C 1.828125 -11.554688 2.367188 -13.441406 3.453125 -15.046875 C 4.535156 -16.660156 5.929688 -17.894531 7.640625 -18.75 C 9.347656 -19.613281 11.097656 -20.046875 12.890625 -20.046875 C 14.378906 -20.046875 15.738281 -19.75 16.96875 -19.15625 C 18.207031 -18.570312 18.828125 -17.835938 18.828125 -16.953125 C 18.828125 -16.515625 18.664062 -16.132812 18.34375 -15.8125 C 18.03125 -15.488281 17.601562 -15.328125 17.0625 -15.328125 C 16.144531 -15.328125 15.398438 -15.882812 14.828125 -17 C 14.378906 -17.675781 13.898438 -18.179688 13.390625 -18.515625 C 12.890625 -18.859375 12.164062 -19.03125 11.21875 -19.03125 C 9.320312 -19.03125 7.835938 -18.296875 6.765625 -16.828125 C 5.703125 -15.359375 5.171875 -13.390625 5.171875 -10.921875 C 5.171875 -8.078125 5.878906 -5.738281 7.296875 -3.90625 C 8.722656 -2.082031 10.859375 -1.171875 13.703125 -1.171875 C 15.765625 -1.171875 17.492188 -1.726562 18.890625 -2.84375 L 18.9375 -2.84375 C 19.039062 -2.84375 19.132812 -2.789062 19.21875 -2.6875 C 19.300781 -2.582031 19.304688 -2.5 19.234375 -2.4375 C 18.054688 -1.382812 16.863281 -0.613281 15.65625 -0.125 C 14.457031 0.363281 13.148438 0.609375 11.734375 0.609375 Z M 11.734375 0.609375" transform="translate(168.58328, 54.199733)"/></g></g></g><g fill="#222" fill-opacity="1"><g><g><path d="M 21.0625 -2.734375 C 21.195312 -2.734375 21.28125 -2.65625 21.3125 -2.5 C 21.351562 -2.351562 21.304688 -2.25 21.171875 -2.1875 L 15.9375 0.296875 C 15.800781 0.367188 15.664062 0.40625 15.53125 0.40625 C 15.09375 0.40625 14.703125 0.109375 14.359375 -0.484375 C 14.023438 -1.078125 13.804688 -1.878906 13.703125 -2.890625 L 11.0625 -1.171875 C 10.21875 -0.628906 9.472656 -0.238281 8.828125 0 C 8.191406 0.238281 7.515625 0.359375 6.796875 0.359375 C 5.546875 0.359375 4.570312 0.03125 3.875 -0.625 C 3.1875 -1.289062 2.84375 -2.128906 2.84375 -3.140625 C 2.84375 -4.160156 3.25 -5.039062 4.0625 -5.78125 C 4.875 -6.53125 6.210938 -7.242188 8.078125 -7.921875 L 13.65625 -10 L 13.65625 -13.453125 C 13.65625 -17.242188 12.585938 -19.140625 10.453125 -19.140625 C 9.304688 -19.140625 8.4375 -18.757812 7.84375 -18 C 7.25 -17.238281 6.851562 -16.363281 6.65625 -15.375 C 6.550781 -14.769531 6.363281 -14.269531 6.09375 -13.875 C 5.820312 -13.488281 5.363281 -13.296875 4.71875 -13.296875 C 4.175781 -13.296875 3.757812 -13.445312 3.46875 -13.75 C 3.1875 -14.0625 3.046875 -14.421875 3.046875 -14.828125 C 3.046875 -15.640625 3.566406 -16.453125 4.609375 -17.265625 C 5.660156 -18.078125 6.914062 -18.753906 8.375 -19.296875 C 9.832031 -19.835938 11.132812 -20.109375 12.28125 -20.109375 C 13.664062 -20.109375 14.710938 -19.664062 15.421875 -18.78125 C 16.140625 -17.90625 16.5 -16.632812 16.5 -14.96875 L 16.5 -5.484375 C 16.5 -4.296875 16.648438 -3.429688 16.953125 -2.890625 C 17.253906 -2.347656 17.765625 -2.078125 18.484375 -2.078125 C 19.117188 -2.078125 19.945312 -2.296875 20.96875 -2.734375 Z M 13.65625 -3.609375 L 13.65625 -9.296875 L 8.9375 -7.46875 C 7.988281 -7.09375 7.300781 -6.660156 6.875 -6.171875 C 6.457031 -5.679688 6.25 -5.097656 6.25 -4.421875 C 6.25 -3.609375 6.507812 -2.921875 7.03125 -2.359375 C 7.550781 -1.796875 8.238281 -1.515625 9.09375 -1.515625 C 9.769531 -1.515625 10.582031 -1.785156 11.53125 -2.328125 Z M 13.65625 -3.609375" transform="translate(184.826528, 54.199733)"/></g></g></g><g fill="#222" fill-opacity="1"><g><g><path d="M 5.125 -16.5 C 5.125 -15.3125 5.515625 -14.367188 6.296875 -13.671875 C 7.078125 -12.984375 8.210938 -12.25 9.703125 -11.46875 C 10.878906 -10.863281 11.796875 -10.335938 12.453125 -9.890625 C 13.117188 -9.453125 13.6875 -8.878906 14.15625 -8.171875 C 14.632812 -7.460938 14.875 -6.597656 14.875 -5.578125 C 14.875 -3.859375 14.226562 -2.40625 12.9375 -1.21875 C 11.65625 -0.03125 9.914062 0.5625 7.71875 0.5625 C 5.925781 0.5625 4.300781 0.0507812 2.84375 -0.96875 C 2.632812 -1.101562 2.53125 -1.304688 2.53125 -1.578125 L 2.4375 -5.53125 C 2.4375 -5.632812 2.53125 -5.691406 2.71875 -5.703125 C 2.90625 -5.722656 3.015625 -5.679688 3.046875 -5.578125 C 3.691406 -3.890625 4.53125 -2.601562 5.5625 -1.71875 C 6.59375 -0.84375 7.785156 -0.40625 9.140625 -0.40625 C 10.253906 -0.40625 11.097656 -0.675781 11.671875 -1.21875 C 12.253906 -1.757812 12.507812 -2.554688 12.4375 -3.609375 C 12.40625 -4.890625 12.007812 -5.875 11.25 -6.5625 C 10.488281 -7.257812 9.34375 -7.984375 7.8125 -8.734375 C 6.695312 -9.273438 5.804688 -9.765625 5.140625 -10.203125 C 4.484375 -10.640625 3.925781 -11.210938 3.46875 -11.921875 C 3.019531 -12.640625 2.796875 -13.519531 2.796875 -14.5625 C 2.796875 -16.394531 3.476562 -17.789062 4.84375 -18.75 C 6.21875 -19.71875 7.835938 -20.203125 9.703125 -20.203125 C 11.054688 -20.203125 12.289062 -19.945312 13.40625 -19.4375 C 13.601562 -19.375 13.726562 -19.300781 13.78125 -19.21875 C 13.832031 -19.132812 13.859375 -19.023438 13.859375 -18.890625 C 13.859375 -18.210938 13.84375 -17.6875 13.8125 -17.3125 L 13.75 -15.171875 C 13.75 -15.109375 13.644531 -15.078125 13.4375 -15.078125 C 13.238281 -15.078125 13.140625 -15.109375 13.140625 -15.171875 C 13.140625 -15.890625 12.867188 -16.5625 12.328125 -17.1875 C 11.796875 -17.8125 11.125 -18.304688 10.3125 -18.671875 C 9.5 -19.046875 8.6875 -19.234375 7.875 -19.234375 C 7.019531 -19.234375 6.347656 -19.003906 5.859375 -18.546875 C 5.367188 -18.097656 5.125 -17.414062 5.125 -16.5 Z M 5.125 -16.5" transform="translate(201.47587, 54.199733)"/></g></g></g><g fill="#222" fill-opacity="1"><g><g><path d="M 18.21875 -2.84375 C 18.320312 -2.84375 18.414062 -2.78125 18.5 -2.65625 C 18.582031 -2.539062 18.59375 -2.429688 18.53125 -2.328125 C 16.289062 -0.367188 13.820312 0.609375 11.125 0.609375 C 9.15625 0.609375 7.476562 0.15625 6.09375 -0.75 C 4.707031 -1.664062 3.648438 -2.867188 2.921875 -4.359375 C 2.191406 -5.847656 1.828125 -7.441406 1.828125 -9.140625 C 1.828125 -11.140625 2.300781 -12.972656 3.25 -14.640625 C 4.195312 -16.316406 5.488281 -17.632812 7.125 -18.59375 C 8.769531 -19.5625 10.578125 -20.046875 12.546875 -20.046875 C 14.429688 -20.046875 15.878906 -19.535156 16.890625 -18.515625 C 17.910156 -17.503906 18.421875 -16.085938 18.421875 -14.265625 C 18.421875 -13.785156 18.378906 -13.441406 18.296875 -13.234375 C 18.210938 -13.035156 18.070312 -12.9375 17.875 -12.9375 L 5.28125 -12.890625 C 5.207031 -12.148438 5.171875 -11.539062 5.171875 -11.0625 C 5.171875 -8.125 5.863281 -5.738281 7.25 -3.90625 C 8.644531 -2.082031 10.59375 -1.171875 13.09375 -1.171875 C 14.113281 -1.171875 14.984375 -1.304688 15.703125 -1.578125 C 16.429688 -1.847656 17.253906 -2.269531 18.171875 -2.84375 Z M 10.859375 -19.03125 C 9.410156 -19.03125 8.210938 -18.546875 7.265625 -17.578125 C 6.316406 -16.617188 5.6875 -15.273438 5.375 -13.546875 L 15.03125 -13.75 C 15.03125 -15.476562 14.65625 -16.789062 13.90625 -17.6875 C 13.164062 -18.582031 12.148438 -19.03125 10.859375 -19.03125 Z M 10.859375 -19.03125" transform="translate(214.013527, 54.199733)"/></g></g></g></svg>